:SAMPLES-PER-SECOND 30
:FULLY-SPECIFIED
:DEGREES
314
root  -2.95462 40.1774 -3.09037 173.244 81.4099 171.602
RightUpLeg  -1.1564 -12.238 -7.7837
RightLeg  14.989 -2.30628 2.44969
RightFoot  -14.3206 -0.0196455 2.98254
RightToes  0.00048216 0.542163 -0.142577
Spine  8.35824 0.23128 8.97663
Spine1  7.94717 2.0587 -3.99983
HEad  2.1788 10.6765 -8.38666
LeftShoulder1  7.58178 -11.5064 -43.9641
LeftArm  -13.7167 26.6567 -29.5791
LeftForeArm  17.3311 -22.2745 -3.93963
LeftHand  -0.25398 0.0180481 5.50724
RightShoulder  5.18666 8.77044 36.2685
RightArm  1.4222 -6.8789 35.8937
RightForeArm  -10.1831 31.0466 7.34295
RightHand  -1.90312 4.67509 -22.0487
LeftUpLeg  -11.1058 3.45585 -2.00888
LeftLeg  23.1001 -0.12145 0.287376
LeftFoot  -8.18071 0.0905492 -1.33708
LeftToes  1.06245e-005 4.65855e-005 -8.18504e-006
315
root  -2.85321 40.0163 -3.06653 175.32 79.2485 174.04
RightUpLeg  -0.732798 -13.2796 -7.90687
RightLeg  16.404 -3.38037 2.42161
RightFoot  -15.5412 0.0128457 3.23079
RightToes  0.00048216 0.542163 -0.142577
Spine  9.16371 0.125894 9.78726
Spine1  8.10449 1.99155 -3.47179
HEad  1.96869 8.72115 -8.26705
LeftShoulder1  7.65029 -11.5841 -44.1423
LeftArm  -13.992 26.5742 -29.9012
LeftForeArm  17.1409 -22.6168 -3.99068
LeftHand  -0.25398 0.0180481 5.50724
RightShoulder  5.28538 8.81711 36.8922
RightArm  3.14441 -6.15887 35.4079
RightForeArm  -9.54311 30.4741 7.16211
RightHand  -1.84419 4.67385 -21.3872
LeftUpLeg  -15.3222 2.44794 -1.59407
LeftLeg  30.8295 -0.636396 -0.0782399
LeftFoot  -5.31736 0.272397 -4.43787
LeftToes  1.06245e-005 4.65855e-005 -8.18504e-006
316
root  -2.65938 39.9176 -3.06952 175.149 77.4727 174.029
RightUpLeg  -0.258325 -13.8934 -8.25229
RightLeg  17.3254 -4.49212 2.25519
RightFoot  -16.3884 0.0372436 3.35961
RightToes  0.00048216 0.542163 -0.142577
Spine  9.609 0.26712 10.0658
Spine1  8.3299 2.1483 -3.11346
HEad  2.0451 6.69059 -7.6262
LeftShoulder1  7.6952 -11.6625 -44.1737
LeftArm  -13.819 26.8028 -30.1803
LeftForeArm  17.2736 -22.942 -4.03093
LeftHand  -0.25398 0.0180481 5.50724
RightShoulder  5.37275 8.87066 37.3963
RightArm  4.9975 -5.28463 35.4321
RightForeArm  -9.82503 28.87 6.77044
RightHand  -1.70662 4.31155 -20.5591
LeftUpLeg  -19.3655 2.55417 -1.4346
LeftLeg  37.1689 -1.19275 -0.604671
LeftFoot  -2.61954 0.60158 -7.75015
LeftToes  1.06245e-005 4.65855e-005 -8.18504e-006
317
root  -2.35909 39.9117 -3.11188 173.489 76.2387 172.337
RightUpLeg  0.680682 -13.8183 -8.91503
RightLeg  17.0146 -5.36742 2.18844
RightFoot  -16.7733 0.0716538 3.90886
RightToes  0.00048216 0.542163 -0.142577
Spine  9.72217 0.590145 10.0182
Spine1  8.62075 2.57431 -3.4607
HEad  2.26293 4.72807 -6.67942
LeftShoulder1  7.72253 -11.7483 -44.0772
LeftArm  -13.4568 27.4028 -30.2878
LeftForeArm  17.4992 -22.9674 -4.0246
LeftHand  -0.25398 0.0180481 5.50724
RightShoulder  5.42843 8.91393 37.6833
RightArm  6.83292 -4.47948 36.178
RightForeArm  -11.0248 26.5367 6.25881
RightHand  -1.66393 4.18548 -20.3121
LeftUpLeg  -22.4178 3.79513 -1.69719
LeftLeg  40.347 -1.10193 -0.62493
LeftFoot  -2.23592 0.731262 -9.0126
LeftToes  1.06245e-005 4.65855e-005 -8.18504e-006
318
root  -1.9744 39.9844 -3.19406 170.931 75.3045 169.474
RightUpLeg  1.94883 -13.4723 -9.87814
RightLeg  15.6313 -6.18957 2.24208
RightFoot  -16.7001 0.0991989 4.53767
RightToes  0.00048216 0.542163 -0.142577
Spine  9.63959 0.959746 9.65285
Spine1  8.80203 3.10169 -4.41372
HEad  2.51424 2.96796 -5.91399
LeftShoulder1  7.74877 -11.8488 -43.9308
LeftArm  -13.2236 28.2935 -30.2231
LeftForeArm  17.6084 -22.5293 -3.96056
LeftHand  -0.25398 0.0180481 5.50724
RightShoulder  5.45021 8.92403 37.8179
RightArm  8.49855 -3.88647 37.3497
RightForeArm  -12.0388 24.1756 5.78444
RightHand  -1.73023 4.44815 -20.5562
LeftUpLeg  -24.4679 5.66554 -2.38777
LeftLeg  39.629 -0.246179 0.142946
LeftFoot  -3.38313 0.592891 -8.20888
LeftToes  1.06245e-005 4.65855e-005 -8.18504e-006
319
root  -1.53215 40.0517 -3.3242 168.641 74.4088 166.679
RightUpLeg  3.09267 -13.2947 -10.8933
RightLeg  14.2689 -7.16715 2.26849
RightFoot  -16.5546 0.0992271 4.64358
RightToes  0.00048216 0.542163 -0.142577
Spine  9.58182 1.25552 9.13713
Spine1  8.75845 3.52025 -5.38183
HEad  2.68347 1.48493 -5.6121
LeftShoulder1  7.7727 -11.9458 -43.7826
LeftArm  -13.2497 29.3546 -30.1472
LeftForeArm  17.6166 -21.8277 -3.88356
LeftHand  -0.25398 0.0180481 5.50724
RightShoulder  5.46306 8.93718 37.8728
RightArm  9.57607 -3.58397 38.4662
RightForeArm  -11.6537 22.4702 5.57571
RightHand  -1.77739 4.67872 -20.6373
LeftUpLeg  -25.8599 7.34625 -3.15711
LeftLeg  35.7569 1.01782 1.1379
LeftFoot  -4.21209 0.459897 -6.98294
LeftToes  1.06245e-005 4.65855e-005 -8.18504e-006
320
root  -1.04021 40.0521 -3.51485 167.265 73.4961 164.89
RightUpLeg  4.21056 -13.2493 -11.7852
RightLeg  13.3839 -7.94401 2.26045
RightFoot  -16.7109 0.11069 4.77042
RightToes  0.00048216 0.542163 -0.142577
Spine  9.694 1.4294 8.69761
Spine1  8.76357 3.77683 -6.0723
HEad  2.54301 0.255957 -5.61311
LeftShoulder1  7.79357 -12.0176 -43.6928
LeftArm  -13.4149 30.382 -30.1639
LeftForeArm  17.6398 -21.1746 -3.82706
LeftHand  -0.25398 0.0180481 5.50724
RightShoulder  5.49589 8.99942 37.9151
RightArm  10.0359 -3.52201 39.1728
RightForeArm  -10.151 21.7925 5.60139
RightHand  -1.75263 4.66384 -20.3885
LeftUpLeg  -26.6785 8.40635 -3.65285
LeftLeg  30.2683 2.02402 1.62041
LeftFoot  -4.42991 0.406134 -6.28244
LeftToes  1.06245e-005 4.65855e-005 -8.18504e-006
321
root  -0.494852 39.9845 -3.7756 166.762 72.6747 164.203
RightUpLeg  5.61605 -13.1779 -12.5165
RightLeg  12.6376 -8.2526 2.27764
RightFoot  -17.1018 0.164861 5.57444
RightToes  0.00048216 0.542163 -0.142577
Spine  9.88611 1.50785 8.48647
Spine1  9.16008 3.98504 -6.66186
HEad  2.04217 -0.771116 -5.56534
LeftShoulder1  7.81654 -12.0598 -43.7036
LeftArm  -13.6418 31.2436 -30.2649
LeftForeArm  17.8352 -20.7027 -3.7816
LeftHand  -0.25398 0.0180481 5.50724
RightShoulder  5.54159 9.07445 38.0126
RightArm  10.7509 -3.5252 39.3682
RightForeArm  -9.10277 21.9968 5.52502
RightHand  -1.72296 4.59751 -20.1828
LeftUpLeg  -26.9539 9.20119 -3.84974
LeftLeg  24.2897 2.26528 1.46385
LeftFoot  -4.39265 0.379796 -5.81875
LeftToes  1.06245e-005 4.65855e-005 -8.18504e-006
322
root  0.11691 39.8667 -4.11181 166.948 72.0503 164.265
RightUpLeg  7.09732 -13.1186 -13.0681
RightLeg  12.054 -8.61007 2.22887
RightFoot  -17.5304 0.219888 6.2679
RightToes  0.00048216 0.542163 -0.142577
Spine  10.005 1.54516 8.41556
Spine1  9.79708 4.20375 -7.18794
HEad  1.52199 -1.54918 -5.25864
LeftShoulder1  7.82653 -12.0644 -43.7489
LeftArm  -14.0192 32.1241 -30.4694
LeftForeArm  18.3412 -20.4992 -3.73181
LeftHand  -0.25398 0.0180481 5.50724
RightShoulder  5.56982 9.09373 38.1633
RightArm  11.7535 -3.48839 39.1181
RightForeArm  -8.43701 22.4669 5.43864
RightHand  -1.71828 4.59054 -20.1431
LeftUpLeg  -27.0065 10.412 -3.98275
LeftLeg  18.4182 1.80707 0.980088
LeftFoot  -3.44945 0.37689 -5.17469
LeftToes  1.06245e-005 4.65855e-005 -8.18504e-006
323
root  0.80793 39.7014 -4.52268 167.65 71.5861 164.81
RightUpLeg  8.47373 -13.1304 -13.4687
RightLeg  11.8167 -9.26219 2.06037
RightFoot  -18.0735 0.245152 6.2535
RightToes  0.00048216 0.542163 -0.142577
Spine  10.1165 1.5791 8.20326
Spine1  10.2184 4.32374 -7.37569
HEad  1.31543 -1.98797 -4.67726
LeftShoulder1  7.79671 -12.0205 -43.7029
LeftArm  -14.4052 33.26 -30.7769
LeftForeArm  19.0813 -20.6713 -3.69077
LeftHand  -0.25398 0.0180481 5.50724
RightShoulder  5.57863 9.07291 38.3008
RightArm  12.7296 -3.51326 38.611
RightForeArm  -7.49486 22.7294 5.37733
RightHand  -1.7081 4.58757 -20.0338
LeftUpLeg  -27.0708 11.3012 -3.64643
LeftLeg  13.5162 2.53078 0.320997
LeftFoot  -1.59245 0.372748 -4.26742
LeftToes  1.06245e-005 4.65855e-005 -8.18504e-006
324
root  1.58393 39.465 -5.00784 168.545 71.1238 165.64
RightUpLeg  10.1008 -13.0869 -13.8871
RightLeg  11.6494 -9.53335 1.92655
RightFoot  -18.9488 0.326188 6.81292
RightToes  0.00048216 0.542163 -0.142577
Spine  10.3689 1.57935 7.74201
Spine1  10.4123 4.29743 -7.23321
HEad  1.33166 -2.15548 -3.89572
LeftShoulder1  7.73111 -11.9551 -43.5079
LeftArm  -14.34 34.4687 -31.0184
LeftForeArm  19.8495 -21.042 -3.67885
LeftHand  -0.25398 0.0180481 5.50724
RightShoulder  5.58893 9.07622 38.3683
RightArm  13.0951 -3.73323 38.0478
RightForeArm  -6.28776 22.6224 5.32293
RightHand  -1.71302 4.68186 -19.9112
LeftUpLeg  -27.1514 10.4808 -2.2626
LeftLeg  10.8777 6.65465 -0.446013
LeftFoot  -0.638913 0.288145 -3.01603
LeftToes  1.06245e-005 4.65855e-005 -8.18504e-006
325
root  2.45087 39.1499 -5.58804 169.283 70.7337 166.365
RightUpLeg  12.1176 -12.9902 -14.5482
RightLeg  11.2977 -9.10105 1.89841
RightFoot  -19.9527 0.514216 8.61485
RightToes  0.00048216 0.542163 -0.142577
Spine  10.5308 1.57334 7.25117
Spine1  10.7584 4.32207 -7.22958
HEad  1.33627 -2.26599 -3.00619
LeftShoulder1  7.65418 -11.9118 -43.1777
LeftArm  -13.6862 35.4102 -31.0063
LeftForeArm  20.5964 -21.1972 -3.66941
LeftHand  -0.25398 0.0180481 5.50724
RightShoulder  5.58549 9.08634 38.3078
RightArm  12.6295 -4.18652 37.5799
RightForeArm  -5.6619 22.1195 5.33988
RightHand  -1.78081 4.95972 -20.1404
LeftUpLeg  -27.6979 11.8207 -2.37654
LeftLeg  11.0927 9.70305 -0.0433714
LeftFoot  -1.21656 0.142024 -1.50874
LeftToes  1.06245e-005 4.65855e-005 -8.18504e-006
